<svg xmlns="http://www.w3.org/2000/svg" width="67.283" height="12mm" viewBox="-3 0 18 12"><defs><linearGradient id="b" x1="1" x2="0" y1="1" y2="0"><stop offset="0" /><stop offset=".3" stop-color="black"/><stop offset=".5" stop-color="black"/><stop offset="1" stop-color="#fff"/></linearGradient></defs><rect width="12" height="12" fill="#464646" rx=".44" ry=".44"/><rect width="10.5" height="10.5" x=".75" y=".75" fill="#eaeaea" rx=".211" ry=".211"/><g fill="#1b1b1"><circle cx="1.767" cy="1.792" r=".37"/><circle cx="10.161" cy="1.792" r=".37"/><circle cx="10.161" cy="10.197" r=".37"/><circle cx="1.767" cy="10.197" r=".37"/></g><g fill="#999" stroke-width="1.015"><path d="M12.365 2.426c.06 0 .108.047.109.105v.387h2.217c.12 0 .217.094.217.21v.508c0 .116-.097.21-.217.21h-2.218v.401a.107.107 0 0 1-.108.106h-.368V2.426zM12.365 7.5c.06 0 .108.047.109.105v.387h2.217c.12 0 .217.094.217.21v.508c0 .116-.097.21-.217.21h-2.218v.401a.107.107 0 0 1-.108.106h-.368V7.5zM-.35 4.353a.107.107 0 0 1-.11-.106V3.86h-2.217a.213.213 0 0 1-.217-.21v-.507c0-.117.097-.21.217-.21h2.218V2.53c0-.058.048-.105.108-.105h.368v1.927zM-.35 9.427a.107.107 0 0 1-.11-.106v-.387h-2.217a.213.213 0 0 1-.217-.21v-.507c0-.117.097-.21.217-.21h2.218v-.402c0-.058.048-.105.108-.105h.368v1.927z"/></g><g class="clickable-element"><circle cx="6" cy="6" r="3.822" fill="url(#a)"/><circle cx="6" cy="6" r="3.822" fill="url(#b)" class="button-active-circle"/><circle cx="6" cy="6" r="2.9" fill="black" stroke="#2f2f2f" stroke-opacity=".47" stroke-width=".08"/></g></svg>