<svg xmlns="http://www.w3.org/2000/svg" width="40" height="50" version="1.2" viewBox="-10 -5 35.456 39.618"><path fill="#8c8c8c" d="M2.51 20.382h2.151v9.827H2.51zM12.977 30.269c0-1.174-.868-2.513-1.892-3.402-.416-.368-1.2-1.002-1.2-1.425v-5.47h-2.16v5.78c0 1.058.947 1.878 1.946 2.747.444.376 1.348 1.25 1.348 1.77"/><path d="M14.173 13.001V7.088A7.087 7.087 0 1 0 0 7.088v13.65c1.474 1.65 4.097 2.752 7.088 2.752 4.619 0 8.368-2.618 8.368-5.86v-1.523c0-1.143-.474-2.204-1.283-3.106z" opacity=".3"/><path fill="#e6e6e6" d="M14.173 13.001V7.088A7.087 7.087 0 1 0 0 7.088v13.65c1.474 1.65 4.097 2.752 7.088 2.752 4.619 0 8.368-2.618 8.368-5.86v-1.523c0-1.143-.474-2.204-1.283-3.106z" opacity=".5"/><path fill="#d1d1d1" d="M14.173 13.001v3.105c0 2.74-3.166 4.965-7.085 4.965C3.175 21.072 0 18.853 0 16.107v4.63c1.474 1.652 4.097 2.753 7.088 2.753 4.619 0 8.368-2.618 8.368-5.859v-1.523c0-1.142-.474-2.204-1.283-3.106z" opacity=".9"/><path d="M14.173 13.001v3.105c0 2.74-3.166 4.965-7.085 4.965C3.175 21.072 0 18.853 0 16.107v4.63c1.474 1.652 4.097 2.753 7.088 2.753 4.619 0 8.368-2.618 8.368-5.859v-1.523c0-1.142-.474-2.204-1.283-3.106z" opacity=".7"/><path d="M14.173 13.001v3.105c0 2.74-3.166 4.965-7.085 4.965C3.175 21.072 0 18.853 0 16.107v3.106c1.474 1.65 4.097 2.752 7.088 2.752 4.619 0 8.368-2.617 8.368-5.858 0-1.141-.474-2.203-1.283-3.105z" opacity=".25"/><ellipse cx="7.088" cy="16.106" opacity=".25" rx="7.087" ry="4.961"/><path fill="#666" d="M2.203 16.107h.993v-3.012h2.82l3.996-4.29H3.407l-1.204.843zM11.215 9.034l-3.803 4.061h3.648v3.012h.914V8.524h-1.196z"/><path fill="blue" d="M14.173 13.001V7.088A7.087 7.087 0 1 0 0 7.088v13.65c1.474 1.65 4.097 2.752 7.088 2.752 4.619 0 8.368-2.618 8.368-5.86v-1.523c0-1.143-.474-2.204-1.283-3.106z" opacity=".65"/><g fill="#fff"><path d="m10.388 3.754 1.436-.273a5.77 5.77 0 0 0-3.541-2.239l.254 1.08a3.77 3.77 0 0 1 1.851 1.432M.768 19.926v1.52c.649.53 1.434.976 2.308 1.317v-1.525a8.4 8.4 0 0 1-2.308-1.312M11.073 20.21c-.256.122-.53.23-.806.33q-.087.03-.178.058a9.7 9.7 0 0 1-1.795.395 2 2 0 0 1-.224.02c-.32.03-.644.057-.97.057-.149 0-.308-.015-.472-.023-1.2-.057-2.33-.315-3.298-.74V7.092a3.75 3.75 0 0 1 2.074-3.35L5.38 3.69 4.134 2.178a5.72 5.72 0 0 0-2.79 4.911v11.905a7 7 0 0 1-.48-.53l-.308.688c1.401 1.482 3.809 2.462 6.542 2.462 1.68 0 3.238-.374 4.512-1.002l-.527-.41z" opacity=".5"/></g><text x="-5" y="33" font-size="3" fill="white">GND</text><text x="15" y="33" font-size="3" fill="white">VCC</text></svg>