<?xml version="1.0" encoding="utf-8"?>
<!-- Generator: Adobe Illustrator 28.1.0, SVG Export Plug-In . SVG Version: 6.00 Build 0)  -->
<svg version="1.1" id="_图层_2" xmlns="http://www.w3.org/2000/svg" xmlns:xlink="http://www.w3.org/1999/xlink" x="0px" y="0px"
	 viewBox="0 0 102.9 209.4" style="enable-background:new 0 0 102.9 209.4;" xml:space="preserve">
<style type="text/css">
	.st0{fill:#1A1A1A;stroke:#000000;stroke-width:0.37;stroke-miterlimit:15.11;}
	.st1{fill:#4D4D4D;stroke:#000000;stroke-width:0.37;stroke-miterlimit:15.11;}
	.st2{fill:#999999;stroke:#000000;stroke-width:0.37;stroke-miterlimit:15.11;}
	.st3{fill:#999999;}
	.st4{fill:#666666;}
	.st5{fill:#B3B3B3;}
	.st6{fill:#333333;stroke:#666666;stroke-width:0.1512;stroke-miterlimit:1.09;}
	.st7{fill:#4D4D4D;}
	.st8{fill:#4D4D4D;stroke:#000000;stroke-width:8.000000e-02;stroke-miterlimit:1.09;}
	.st9{fill:#333333;}
	.st10{fill:#1A1A1A;stroke:#666666;stroke-width:7.000000e-02;stroke-miterlimit:10;}
	.st11{fill:none;stroke:#5C5C5C;stroke-width:2.12;stroke-miterlimit:15.11;}
	.st12{fill:#F8D840;}
	.st13{font-family:'ArialMT';}
	.st14{font-size:4.8px;}
	.st15{font-family:'Arial-BoldMT';}
	.st16{font-size:3.69px;}
	.st17{fill:#363A44;}
	.st18{fill:#CCCCCC;}
</style>
<path class="st0" d="M102.7,27.5v171.9c0,2.4-2,4.4-4.4,4.4H4.6c-2.4,0-4.4-2-4.4-4.4V27.5c0-2.4,2-4.4,4.4-4.4h93.7
	C100.7,23.1,102.7,25.1,102.7,27.5z"/>
<path class="st1" d="M84.6,1.2v96H17.5v-96C17.5,1.2,84.6,1.2,84.6,1.2z"/>
<path class="st2" d="M80.4,24.6v68.3H19.7V24.6H80.4z"/>
<rect x="35.9" y="120.9" class="st3" width="7.5" height="5.7"/>
<path id="aC" class="st4" d="M43.5,122.4v3h-3.8v-3H43.5z"/>
<rect x="35.9" y="129.4" class="st3" width="7.5" height="5.7"/>
<path id="aC-2" class="st4" d="M43.5,130.9v3h-3.8v-3H43.5z"/>
<rect x="35.8" y="137.9" class="st3" width="7.5" height="5.7"/>
<path id="aC-3" class="st4" d="M43.3,139.4v3h-3.8v-3H43.3z"/>
<rect x="58.7" y="125.4" class="st5" width="7.7" height="13.9"/>
<rect x="56.2" y="126.7" class="st3" width="7.5" height="11.5"/>
<rect x="42.7" y="120.9" class="st6" width="14.5" height="24"/>
<path class="st5" d="M46.6,171.4v6.5h-1.8v-6.5H46.6z"/>
<rect x="44.5" y="172.5" class="st7" width="2.4" height="4.5"/>
<path class="st5" d="M31.6,173.4h6.5v1.8h-6.5C31.6,175.2,31.6,173.4,31.6,173.4z"/>
<rect x="32.7" y="173.1" class="st7" width="4.5" height="2.4"/>
<path class="st5" d="M52.9,171.4v6.5h-1.8v-6.5H52.9z"/>
<rect x="50.8" y="172.5" class="st7" width="2.4" height="4.5"/>
<path class="st5" d="M58,171.4v6.5h-1.8v-6.5H58z"/>
<rect x="55.9" y="172.5" class="st7" width="2.4" height="4.5"/>
<path id="aw-2" class="st5" d="M20.3,180.2v20.9h5.9v-20.9H20.3z"/>
<path id="aA-2" class="st8" d="M28.5,182.2H17.6v16.6h10.8L28.5,182.2L28.5,182.2z"/>
<ellipse class="st9" cx="23.5" cy="190.4" rx="3.2" ry="3"/>
<path id="aw-2_00000070085971081433942230000005344840406793440677_" class="st5" d="M76.3,180.2v20.9h5.9v-20.9H76.3z"/>
<path id="aA-2_00000011740186299011469640000010301041262904333185_" class="st8" d="M84.5,182.2H73.6v16.6h10.8L84.5,182.2
	L84.5,182.2z"/>
<ellipse class="st9" cx="79.5" cy="190.4" rx="3.2" ry="3"/>
<rect x="74.3" y="155" class="st3" width="2.4" height="3.1"/>
<path id="aC-4" class="st4" d="M74.9,158.2h1.2v-1.6h-1.2V158.2z"/>
<rect x="77.9" y="155" class="st3" width="2.4" height="3.1"/>
<path id="aC-5" class="st4" d="M78.5,158.2h1.2v-1.6h-1.2V158.2z"/>
<rect x="81.5" y="154.9" class="st3" width="2.4" height="3.1"/>
<path id="aC-6" class="st4" d="M82.1,158.1h1.2v-1.6h-1.2V158.1z"/>
<rect x="76.2" y="164.6" class="st5" width="5.8" height="3.2"/>
<rect x="76.8" y="163.5" class="st3" width="4.8" height="3.1"/>
<path class="st10" d="M74.7,163.8H84c0.1,0,0.2-0.1,0.2-0.2v-5.3c0-0.1-0.1-0.2-0.2-0.2h-9.3c-0.1,0-0.2,0.1-0.2,0.2v5.3
	C74.5,163.8,74.6,163.8,74.7,163.8z"/>
<rect x="81.8" y="136.8" class="st3" width="2.4" height="3.1"/>
<path id="aC-7" class="st4" d="M83.6,136.8h-1.3v1.6h1.2v-1.6C83.5,136.8,83.6,136.8,83.6,136.8z"/>
<rect x="78.3" y="136.8" class="st3" width="2.4" height="3.1"/>
<path id="aC-8" class="st4" d="M79.9,136.8h-1.2v1.6h1.2V136.8z"/>
<rect x="74.7" y="136.9" class="st3" width="2.4" height="3.1"/>
<path id="aC-9" class="st4" d="M76.4,136.8h-1.2v1.6h1.2V136.8z"/>
<rect x="76.5" y="127.1" class="st5" width="5.8" height="3.2"/>
<rect x="76.9" y="128.3" class="st3" width="4.8" height="3.1"/>
<path class="st10" d="M83.8,131.1h-9.3c-0.1,0-0.2,0.1-0.2,0.2v5.3c0,0.1,0.1,0.2,0.2,0.2h9.3c0.1,0,0.2-0.1,0.2-0.2v-5.3
	C83.9,131.2,83.9,131.1,83.8,131.1z"/>
<path class="st11" d="M76.6,22.8v-19H60.2v10.4h-9.3V3.8h-8.5v10.3h-9.7V3.5h-8.1v17 M68.4,3.7v18.6"/>
<circle class="st12" cx="97.9" cy="28.3" r="2.6"/>
<circle class="st12" cx="97.9" cy="37.9" r="2.6"/>
<circle class="st12" cx="97.9" cy="47.1" r="2.6"/>
<circle class="st12" cx="97.9" cy="56.3" r="2.6"/>
<circle class="st12" cx="97.9" cy="65.9" r="2.6"/>
<circle class="st12" cx="97.9" cy="75.1" r="2.6"/>
<circle class="st12" cx="97.9" cy="84.7" r="2.6"/>
<circle class="st12" cx="97.9" cy="93.9" r="2.6"/>
<circle class="st12" cx="97.9" cy="103.2" r="2.6"/>
<circle class="st12" cx="97.9" cy="112.8" r="2.6"/>
<circle class="st12" cx="97.9" cy="122" r="2.6"/>
<circle class="st12" cx="97.9" cy="131.6" r="2.6"/>
<circle class="st12" cx="97.9" cy="140.8" r="2.6"/>
<circle class="st12" cx="97.9" cy="150" r="2.6"/>
<circle class="st12" cx="97.9" cy="159.6" r="2.6"/>
<circle class="st12" cx="97.9" cy="168.8" r="2.6"/>
<circle class="st12" cx="97.9" cy="178.4" r="2.6"/>
<circle class="st12" cx="97.9" cy="187.6" r="2.6"/>
<circle class="st12" cx="97.9" cy="196.9" r="2.6"/>
<circle class="st12" cx="4.1" cy="28.3" r="2.6"/>
<circle class="st12" cx="4.1" cy="37.9" r="2.6"/>
<circle class="st12" cx="4.1" cy="47.1" r="2.6"/>
<circle class="st12" cx="4.1" cy="56.3" r="2.6"/>
<circle class="st12" cx="4.1" cy="65.9" r="2.6"/>
<circle class="st12" cx="4.1" cy="75.1" r="2.6"/>
<circle class="st12" cx="4.1" cy="84.7" r="2.6"/>
<circle class="st12" cx="4.1" cy="93.9" r="2.6"/>
<circle class="st12" cx="4.1" cy="103.2" r="2.6"/>
<circle class="st12" cx="4.1" cy="112.8" r="2.6"/>
<circle class="st12" cx="4.1" cy="122" r="2.6"/>
<circle class="st12" cx="4.1" cy="131.6" r="2.6"/>
<circle class="st12" cx="4.1" cy="140.8" r="2.6"/>
<circle class="st12" cx="4.1" cy="150" r="2.6"/>
<circle class="st12" cx="4.1" cy="159.6" r="2.6"/>
<circle class="st12" cx="4.1" cy="168.8" r="2.6"/>
<circle class="st12" cx="4.1" cy="178.4" r="2.6"/>
<circle class="st12" cx="4.1" cy="187.6" r="2.6"/>
<circle class="st12" cx="4.1" cy="196.9" r="2.6"/>
<text transform="matrix(1 0 0 1 18.9 174.35)" class="st5 st13 st14">EN</text>
<text transform="matrix(1 0 0 1 74.6 174.71)" class="st5 st13 st14">Boot</text>
<text transform="matrix(6.123234e-17 1 -1 6.123234e-17 9.3105 25.32)" class="st5 st15 st16">3V3</text>
<text transform="matrix(6.123234e-17 1 -1 6.123234e-17 9.3105 35.8276)" class="st5 st15 st16">01</text>
<text transform="matrix(6.123234e-17 1 -1 6.123234e-17 9.3105 45.1806)" class="st5 st15 st16">02</text>
<text transform="matrix(6.123234e-17 1 -1 6.123234e-17 9.3105 54.5334)" class="st5 st15 st16">03</text>
<text transform="matrix(6.123234e-17 1 -1 6.123234e-17 9.3105 194.8278)" class="st5 st15 st16">18</text>
<text transform="matrix(6.123234e-17 1 -1 6.123234e-17 9.3105 63.8863)" class="st5 st15 st16">04</text>
<text transform="matrix(6.123234e-17 1 -1 6.123234e-17 9.3105 73.2393)" class="st5 st15 st16">05</text>
<text transform="matrix(6.123234e-17 1 -1 6.123234e-17 9.3105 82.5926)" class="st5 st15 st16">06</text>
<text transform="matrix(6.123234e-17 1 -1 6.123234e-17 9.3105 91.9456)" class="st5 st15 st16">07</text>
<text transform="matrix(6.123234e-17 1 -1 6.123234e-17 9.3105 101.2985)" class="st5 st15 st16">08</text>
<text transform="matrix(6.123234e-17 1 -1 6.123234e-17 9.3105 110.651)" class="st5 st15 st16">09</text>
<text transform="matrix(6.123234e-17 1 -1 6.123234e-17 9.3105 120.004)" class="st5 st15 st16">10</text>
<text transform="matrix(6.123234e-17 1 -1 6.123234e-17 9.3105 129.459)" class="st5 st15 st16">11</text>
<text transform="matrix(6.123234e-17 1 -1 6.123234e-17 9.3105 138.7103)" class="st5 st15 st16">12</text>
<text transform="matrix(6.123234e-17 1 -1 6.123234e-17 9.3105 148.0632)" class="st5 st15 st16">13</text>
<text transform="matrix(6.123234e-17 1 -1 6.123234e-17 9.3105 157.4158)" class="st5 st15 st16">14</text>
<text transform="matrix(6.123234e-17 1 -1 6.123234e-17 9.3105 166.7689)" class="st5 st15 st16">15</text>
<text transform="matrix(6.123234e-17 1 -1 6.123234e-17 9.3105 176.1218)" class="st5 st15 st16">16</text>
<text transform="matrix(6.123234e-17 1 -1 6.123234e-17 9.3105 185.4748)" class="st5 st15 st16">17</text>
<text transform="matrix(6.123234e-17 1 -1 6.123234e-17 90.7188 35.8276)" class="st5 st15 st16">19</text>
<text transform="matrix(6.123234e-17 1 -1 6.123234e-17 90.7188 45.1805)" class="st5 st15 st16">20</text>
<text transform="matrix(6.123234e-17 1 -1 6.123234e-17 90.7188 54.5333)" class="st5 st15 st16">21</text>
<text transform="matrix(6.123234e-17 1 -1 6.123234e-17 90.7188 63.8862)" class="st5 st15 st16">22</text>
<text transform="matrix(6.123234e-17 1 -1 6.123234e-17 90.7188 73.2391)" class="st5 st15 st16">23</text>
<text transform="matrix(6.123234e-17 1 -1 6.123234e-17 90.7188 82.5921)" class="st5 st15 st16">24</text>
<text transform="matrix(6.123234e-17 1 -1 6.123234e-17 90.7188 91.9453)" class="st5 st15 st16">25</text>
<text transform="matrix(6.123234e-17 1 -1 6.123234e-17 90.7188 101.2982)" class="st5 st15 st16">26</text>
<text transform="matrix(6.123234e-17 1 -1 6.123234e-17 90.7188 110.6506)" class="st5 st15 st16">27</text>
<text transform="matrix(6.123234e-17 1 -1 6.123234e-17 90.7188 120.0035)" class="st5 st15 st16">28</text>
<text transform="matrix(6.123234e-17 1 -1 6.123234e-17 90.7188 129.3564)" class="st5 st15 st16">29</text>
<text transform="matrix(6.123234e-17 1 -1 6.123234e-17 90.7188 138.7094)" class="st5 st15 st16">30</text>
<text transform="matrix(6.123234e-17 1 -1 6.123234e-17 90.7188 148.0626)" class="st5 st15 st16">31</text>
<text transform="matrix(6.123234e-17 1 -1 6.123234e-17 90.7188 157.4155)" class="st5 st15 st16">32</text>
<text transform="matrix(6.123234e-17 1 -1 6.123234e-17 90.7188 166.7681)" class="st5 st15 st16">33</text>
<text transform="matrix(6.123234e-17 1 -1 6.123234e-17 90.7188 176.121)" class="st5 st15 st16">34</text>
<text transform="matrix(6.123234e-17 1 -1 6.123234e-17 90.7188 185.4739)" class="st5 st15 st16">35</text>
<text transform="matrix(6.123234e-17 1 -1 6.123234e-17 90.7188 194.8275)" class="st5 st15 st16">36</text>
<text transform="matrix(6.123234e-17 -1 1 6.123234e-17 93.41 33.4297)" class="st5 st15 st16">GND</text>
<circle class="st12" cx="76.9" cy="22" r="1.5"/>
<circle class="st12" cx="68.8" cy="22" r="1.5"/>
<rect x="57.8" y="148.5" class="st7" width="1" height="20.1"/>
<rect x="55" y="148.5" class="st7" width="1" height="20.1"/>
<rect x="52.2" y="148.4" class="st7" width="1" height="20.1"/>
<rect x="49.4" y="148.4" class="st7" width="1" height="20.1"/>
<rect x="46.7" y="148.5" class="st7" width="1" height="20.1"/>
<rect x="43.9" y="148.5" class="st7" width="1" height="20.1"/>
<rect x="41.2" y="151" class="st7" width="20.1" height="1"/>
<rect x="41.2" y="153.8" class="st7" width="20.1" height="1"/>
<rect x="41.2" y="156.6" class="st7" width="20.1" height="1"/>
<rect x="41.2" y="159.4" class="st7" width="20.1" height="1"/>
<rect x="41.2" y="162.2" class="st7" width="20.1" height="1"/>
<rect x="41.2" y="164.9" class="st7" width="20.1" height="1"/>
<path class="st9" d="M60.2,149.3v18.8h-18v-18.8H60.2z"/>
<rect x="40.9" y="192.8" class="st17" width="21.1" height="9.6"/>
<path class="st18" d="M61.4,209.4l0.6-0.6v-15.9h-4.3c-0.2,0-0.3,0.1-0.3,0.3l0,0v1.2l2.7,1.5v1.2h-1.3v1h-2.1v-1h-1.2v-2.7h-1.6
	v1.1H49v-1.1h-1.6v2.7h-1.2v1h-2.1v-1h-1.3v-1.2l0,0l2.7-1.5v-1.3c0-0.2-0.1-0.3-0.3-0.3h-4.3v15.9l0.6,0.6
	C41.5,209.3,61.4,209.4,61.4,209.4z"/>
</svg>
