<svg xmlns="http://www.w3.org/2000/svg" width="27.7mm" height="22.6mm" viewBox="0 0 27.7 22.6"><path fill="#0f4d7c" d="M0 0v22.6h6.7v-.488c0-.61.491-1.1 1.1-1.1h12.8c.61 0 1.1.491 1.1 1.1v.488h5.98V0z"/><path d="M.401 4.2h26.9V19H.401z"/><path fill="#262628" d="M1.46 5.27h24.8v12.4H1.46z"/><g fill="#fff"><circle cx="2.02" cy="1.87" r="1.24" stroke="#c8ceda" stroke-width=".206"/><circle cx="25.6" cy="1.87" r="1.24" stroke="#c8ceda" stroke-width=".206"/><g stroke="#ecc98a" stroke-width=".304"><circle cx="10.1" cy="1.71" r=".706"/><circle cx="12.6" cy="1.71" r=".706"/><circle cx="15.1" cy="1.71" r=".706"/><circle cx="17.7" cy="1.71" r=".706"/></g><g aria-label="GND"><path d="M9.575 3.595q-.166.05-.27.05-.192 0-.293-.11t-.1-.283q0-.164.104-.274.105-.109.269-.109.14 0 .218.064.08.064.08.168h-.139q0-.055-.046-.089-.045-.033-.113-.033-.12 0-.176.08-.057.078-.057.196 0 .124.064.202.065.077.183.077.058 0 .137-.018v-.17h-.147v-.113h.286zM10.383 3.64h-.195l-.301-.601v.601h-.13v-.745h.192l.302.602v-.602h.133zM10.922 3.46q.064-.067.064-.196t-.064-.197T10.736 3h-.092v.53h.092q.122 0 .186-.068zm.2-.196q0 .17-.103.272-.102.101-.284.101h-.227v-.745h.227q.186 0 .287.102.1.1.1.27z"/></g><g aria-label="VCC"><path d="m12.269 2.877-.278.745h-.16l-.272-.745h.15l.204.588.207-.588zM12.942 3.416q-.008.109-.095.179-.086.07-.204.07-.084 0-.147-.032-.064-.033-.101-.087-.038-.056-.056-.123-.017-.068-.017-.145 0-.167.08-.278.083-.111.241-.111.138 0 .211.061.073.062.081.177h-.134q-.014-.133-.158-.133-.18 0-.18.283 0 .142.042.211t.137.07q.068 0 .107-.039.04-.038.047-.104zM13.706 3.416q-.008.109-.095.179-.086.07-.205.07-.083 0-.147-.032-.064-.033-.101-.087-.037-.056-.056-.123-.017-.068-.017-.145 0-.167.081-.278.082-.111.24-.111.138 0 .211.061.074.062.082.177h-.135q-.014-.133-.158-.133-.18 0-.18.283 0 .142.042.211t.137.07q.068 0 .107-.039.04-.038.048-.104z"/></g><g aria-label="SCL"><path d="M14.738 3.416q0 .077-.049.13-.047.053-.113.076-.065.022-.138.022-.12 0-.2-.065-.082-.066-.082-.18h.14q.002.065.04.1t.105.035q.039 0 .074-.008.035-.01.063-.034.027-.025.027-.065 0-.041-.032-.068-.031-.028-.08-.038l-.104-.027q-.055-.016-.103-.034t-.08-.061-.031-.108q0-.1.085-.16.084-.062.186-.062.115 0 .192.055.077.053.077.16h-.139q0-.055-.037-.081-.037-.028-.094-.028-.054 0-.096.028-.04.026-.04.077 0 .039.03.064.033.025.08.036.048.01.104.028.057.016.105.036t.079.064.032.107zM15.502 3.416q-.008.109-.095.179-.086.07-.205.07-.083 0-.147-.032-.064-.033-.101-.087-.037-.056-.056-.123-.017-.068-.017-.145 0-.167.081-.278.082-.111.24-.111.138 0 .211.061.074.062.082.177h-.135q-.014-.133-.158-.133-.18 0-.18.283 0 .142.042.211t.137.07q.068 0 .107-.039.04-.038.048-.104zM16.085 3.64h-.471v-.745h.136v.638h.335z"/></g><g aria-label="SDA"><path d="M17.163 3.416q0 .077-.049.13-.048.053-.114.076-.065.022-.137.022-.12 0-.201-.065-.081-.066-.081-.18h.14q.001.065.04.1.038.035.104.035.04 0 .074-.008.035-.01.063-.034.028-.025.028-.065 0-.041-.033-.068-.03-.028-.079-.038l-.104-.027q-.056-.016-.103-.034-.048-.018-.08-.061t-.032-.108q0-.1.085-.16.085-.062.187-.062.115 0 .191.055.078.053.078.16H17q0-.055-.036-.081-.038-.028-.094-.028-.055 0-.096.028-.04.026-.04.077 0 .039.03.064.033.025.08.036.048.01.104.028.057.016.104.036.048.02.08.064t.032.107zM17.702 3.46q.064-.067.064-.196t-.064-.197T17.516 3h-.093v.53h.093q.122 0 .186-.068zm.2-.196q0 .17-.103.272-.102.101-.284.101h-.227v-.745h.227q.185 0 .286.102.102.1.102.27zM18.465 3.37l-.115-.316-.117.317zm.248.28h-.137l-.068-.172h-.318l-.065.173h-.135l.291-.746h.14z"/></g></g><rect width="12" height="1.9" x="8.16" y="19.7" fill="#ba8239" ry=".328"/><path d="M6.12 18.5c.178.023 1 .368 1.48.515.192.06.405.066.581.162.117.064.186.133.3.266v2.19h11.3v-2.19c.113-.133.182-.202.3-.266.177-.096.389-.102.581-.162.475-.147 1.3-.493 1.48-.515h-8.08z"/><path fill="#737373" d="M.39 18.9h27v.634h-27z" opacity=".467"/><circle cx="2.02" cy="21" r="1.24" fill="#fff" stroke="#c8ceda" stroke-width=".206"/><circle cx="25.6" cy="21" r="1.24" fill="#fff" stroke="#c8ceda" stroke-width=".206"/></svg>